<?xml version="1.0" encoding="utf-8"?>
<!-- Generator: Adobe Illustrator 21.0.0, SVG Export Plug-In . SVG Version: 6.00 Build 0)  -->
<svg preserveAspectRatio="xMidYMid meet" data-bbox="18.75 71.949 162.499 56.499" viewBox="18.75 71.949 162.499 56.499" height="200" width="200" xmlns="http://www.w3.org/2000/svg" data-type="color" role="presentation" aria-hidden="true" aria-labelledby="svgcid--70jydyaz6sz"><defs><style>#comp-koxa6ct4 svg [data-color="1"] {fill: #F0FAFF;}</style></defs><title id="svgcid--70jydyaz6sz"></title>
    <g>
        <path d="M178.757 73.931c-4.686 4.064-43.865 12.787-54.333 14.373-6.28.892-13.558 5.749-19.44 9.615-3.688 2.379-6.779 4.461-8.972 5.254-5.782 1.982-10.468 0-10.468 0l-.199-.099-.199.099c-.797.298-1.296.397-1.794.595-1.097.297-1.794.496-2.891 1.586-1.197 1.19-3.589-.099-3.689-.099h-.1c-18.045-3.866-38.681 3.866-38.781 3.866-19.041 3.271-19.141 4.956-19.141 5.749 0 .991 1.495 1.388 1.895 1.486h.2c5.283-1.586 18.244-2.081 29.808-2.577 5.383-.198 10.467-.397 13.857-.694 10.268-.892 22.231 5.155 22.331 5.254.399.198.997.595.997.991 0 .793-1.595 1.982-2.791 2.577l-.399.198.199.396c1.296 3.072 16.848 5.451 20.038 5.947 5.882 0 11.664-4.857 12.362-5.353 4.885-2.279 5.284-3.568 5.184-4.361-.099-.992-1.296-1.289-1.495-1.289h-.2c-8.375 2.28-13.459-2.181-13.459-2.28l-.1-.099h-.1c-.797-.198-1.794-.594-1.894-1.189-.199-1.487 3.888-4.163 6.48-5.551 7.277-1.487 18.643-8.327 19.141-8.624l.1-.099c1.894-2.081 15.253-7.929 22.132-10.804 21.334-6.145 26.319-13.778 26.518-14.075l1.695-2.775-2.492 1.982z" fill="#009FE3" data-color="1"></path>
    </g>
</svg>