<svg preserveAspectRatio="xMidYMid meet" viewBox=".064 21.9 199.636 155.7" xmlns="http://www.w3.org/2000/svg"><path d="m6.4 170.2c.5.3 1.1.5 1.7.5.5 0 .9-.1 1.4-.3l39.3-17.2c.7-.3 1.2-.8 1.6-1.4l54.2-95.1c3.2-5.6 1.2-12.8-4.3-16l-29.6-17.2c-2.7-1.6-5.9-2-9-1.2-3 .8-5.6 2.8-7.1 5.5l-54.1 95c-.4.6-.5 1.3-.4 2.1l4.7 42.7c.1 1.1.7 2 1.6 2.6zm14.4-38 50-87.6 11.3 6.5-50.1 87.7zm-1.9-1.1-11.4-6.7 49.9-87.6 11.6 6.7zm24.4 17-19.9 8.7-14-8.1-2.4-22zm2.1-1.4-11.4-6.7 50.1-87.7 11.3 6.6zm18.1-117.8c1.3-.3 2.6-.2 3.8.5l29.5 17.1c2.4 1.4 3.2 4.4 1.8 6.8l-2.1 3.7-38.1-22 2-3.6c.7-1.3 1.8-2.2 3.1-2.5z"/><path d="m199.7 175.6v2h-194v-2z"/></svg>